<svg width="20" height="20" viewBox="0 0 20 20" fill="none" xmlns="http://www.w3.org/2000/svg">
<path fill-rule="evenodd" clip-rule="evenodd" d="M9.99986 3.13159C8.45187 3.13159 7.19766 4.3858 7.19766 5.93379V7.4173H12.8021V5.93379C12.8021 4.3858 11.5478 3.13159 9.99986 3.13159ZM6.70315 8.40631L6.70385 8.40631H13.2959L13.2966 8.40631L13.2973 8.40631H14.6152C15.0701 8.40631 15.4394 8.77569 15.4394 9.23049V15.8239C15.4394 16.2787 15.0701 16.6481 14.6152 16.6481H5.38448C4.92967 16.6481 4.5603 16.2787 4.5603 15.8239V9.23049C4.5603 8.77569 4.92967 8.40631 5.38448 8.40631H6.70246L6.70315 8.40631ZM13.7911 5.93379V7.4173H14.6152C15.6163 7.4173 16.4284 8.22947 16.4284 9.23049V15.8239C16.4284 16.8249 15.6163 17.6371 14.6152 17.6371H5.38448C4.38346 17.6371 3.57129 16.8249 3.57129 15.8239V9.23049C3.57129 8.22947 4.38346 7.4173 5.38448 7.4173H6.20865V5.93379C6.20865 3.83958 7.90565 2.14258 9.99986 2.14258C12.0941 2.14258 13.7911 3.83958 13.7911 5.93379ZM8.51632 12.5272C8.51632 11.7078 9.18042 11.0437 9.99983 11.0437C10.8193 11.0437 11.4834 11.7078 11.4834 12.5272C11.4834 13.3466 10.8193 14.0107 9.99983 14.0107C9.18042 14.0107 8.51632 13.3466 8.51632 12.5272ZM9.99983 10.0547C8.6342 10.0547 7.52731 11.1616 7.52731 12.5272C7.52731 13.8928 8.6342 14.9997 9.99983 14.9997C11.3655 14.9997 12.4724 13.8928 12.4724 12.5272C12.4724 11.1616 11.3655 10.0547 9.99983 10.0547Z" fill="#ACB4BE"/>
</svg>
