<svg width="16" height="20" viewBox="0 0 16 20" fill="none" xmlns="http://www.w3.org/2000/svg">
<path fill-rule="evenodd" clip-rule="evenodd" d="M8.00041 1.7581C6.14282 1.7581 4.63777 3.26315 4.63777 5.12074V6.90096H11.363V5.12074C11.363 3.26315 9.858 1.7581 8.00041 1.7581ZM4.04436 8.08777L4.04221 8.08777H2.46196C1.91619 8.08777 1.47295 8.53101 1.47295 9.07678V16.9889C1.47295 17.5346 1.91619 17.9779 2.46196 17.9779H13.5389C14.0846 17.9779 14.5279 17.5346 14.5279 16.9889V9.07678C14.5279 8.53101 14.0846 8.08777 13.5389 8.08777H11.9586L11.9565 8.08777L11.9543 8.08777H4.04651L4.04436 8.08777ZM3.45096 5.12074V6.90096H2.46196C1.26073 6.90096 0.286133 7.87556 0.286133 9.07678V16.9889C0.286133 18.1901 1.26073 19.1647 2.46196 19.1647H13.5389C14.7401 19.1647 15.7147 18.1901 15.7147 16.9889V9.07678C15.7147 7.87556 14.7401 6.90096 13.5389 6.90096H12.5499V5.12074C12.5499 2.60769 10.5135 0.571289 8.00041 0.571289C5.48736 0.571289 3.45096 2.60769 3.45096 5.12074ZM6.22018 13.0328C6.22018 12.0495 7.0171 11.2526 8.0004 11.2526C8.98371 11.2526 9.78062 12.0495 9.78062 13.0328C9.78062 14.0161 8.98371 14.8131 8.0004 14.8131C7.0171 14.8131 6.22018 14.0161 6.22018 13.0328ZM8.0004 10.0658C6.36164 10.0658 5.03337 11.3941 5.03337 13.0328C5.03337 14.6716 6.36164 15.9999 8.0004 15.9999C9.63917 15.9999 10.9674 14.6716 10.9674 13.0328C10.9674 11.3941 9.63917 10.0658 8.0004 10.0658Z" fill="#808191"/>
</svg>
