<svg width="24" height="24" viewBox="0 0 24 24" fill="none" xmlns="http://www.w3.org/2000/svg">
<path d="M21.9996 7.41995V5.58181C21.9996 4.57729 21.185 3.76367 20.1814 3.76367H3.81814C2.81453 3.76367 2 4.57729 2 5.58181V20.126C2 21.1306 2.81453 21.9451 3.81814 21.9451H7.47442" stroke="#808191" stroke-width="1.5" stroke-linecap="round" stroke-linejoin="round"/>
<path d="M6.54541 1.94531V6.49067" stroke="#808191" stroke-width="1.5" stroke-linecap="round" stroke-linejoin="round"/>
<path d="M17.4541 1.94531V6.49067" stroke="#808191" stroke-width="1.5" stroke-linecap="round" stroke-linejoin="round"/>
<path fill-rule="evenodd" clip-rule="evenodd" d="M21.9996 16.0359C21.9996 19.2995 19.3542 21.9449 16.0906 21.9449C12.827 21.9449 10.1816 19.2995 10.1816 16.0359C10.1816 12.7723 12.827 10.127 16.0906 10.127C19.3542 10.127 21.9996 12.7723 21.9996 16.0359Z" stroke="#808191" stroke-width="1.5" stroke-linecap="round" stroke-linejoin="round"/>
<path d="M16.5451 13.7637V16.4909H13.8179" stroke="#808191" stroke-width="1.5" stroke-linecap="round" stroke-linejoin="round"/>
</svg>
