<svg width="32" height="32" viewBox="0 0 32 32" fill="none" xmlns="http://www.w3.org/2000/svg">
<path d="M19.4286 17.8089C19.4286 19.7024 17.8935 21.2374 16 21.2374C14.1065 21.2374 12.5714 19.7024 12.5714 17.8089C12.5714 15.9153 14.1065 14.3803 16 14.3803C17.8935 14.3803 19.4286 15.9153 19.4286 17.8089Z" fill="white"/>
<path fill-rule="evenodd" clip-rule="evenodd" d="M9.14286 6.66602C8.19608 6.66602 7.42857 7.43353 7.42857 8.3803V9.23744C5.53502 9.23744 4 10.7725 4 12.666V22.9517C4 24.8453 5.53502 26.3803 7.42857 26.3803H24.5714C26.465 26.3803 28 24.8453 28 22.9517V12.666C28 10.7725 26.465 9.23744 24.5714 9.23744H16V8.3803C16 7.43353 15.2325 6.66602 14.2857 6.66602H9.14286ZM16 22.9517C18.8403 22.9517 21.1429 20.6492 21.1429 17.8089C21.1429 14.9686 18.8403 12.666 16 12.666C13.1597 12.666 10.8571 14.9686 10.8571 17.8089C10.8571 20.6492 13.1597 22.9517 16 22.9517Z" fill="white"/>
</svg>
