<svg width="16" height="16" viewBox="0 0 16 16" fill="none" xmlns="http://www.w3.org/2000/svg">
<path d="M14.6668 8.00065C14.6668 11.6826 11.6821 14.6673 8.00016 14.6673C4.31825 14.6673 1.3335 11.6826 1.3335 8.00065C1.3335 4.31874 4.31825 1.33398 8.00016 1.33398C11.6821 1.33398 14.6668 4.31874 14.6668 8.00065ZM7.22903 11.5306L12.1753 6.58436C12.3432 6.4164 12.3432 6.14406 12.1753 5.97611L11.567 5.36786C11.3991 5.19987 11.1267 5.19987 10.9587 5.36786L6.92489 9.40167L5.04159 7.51837C4.87363 7.35041 4.60129 7.35041 4.43331 7.51837L3.82506 8.12662C3.6571 8.29458 3.6571 8.56691 3.82506 8.73487L6.62075 11.5306C6.78874 11.6986 7.06105 11.6986 7.22903 11.5306Z" fill="#458E22"/>
</svg>
