<svg width="20" height="20" viewBox="0 0 20 20" fill="none" xmlns="http://www.w3.org/2000/svg">
<path d="M18.3332 9.99935C18.3332 14.6017 14.6022 18.3327 9.99984 18.3327C5.39745 18.3327 1.6665 14.6017 1.6665 9.99935C1.6665 5.39696 5.39745 1.66602 9.99984 1.66602C14.6022 1.66602 18.3332 5.39696 18.3332 9.99935ZM9.03593 14.4118L15.2187 8.22899C15.4287 8.01904 15.4287 7.67862 15.2187 7.46867L14.4584 6.70835C14.2485 6.49837 13.908 6.49837 13.6981 6.70835L8.65575 11.7506L6.30162 9.39649C6.09167 9.18655 5.75125 9.18655 5.54127 9.39649L4.78095 10.1568C4.57101 10.3668 4.57101 10.7072 4.78095 10.9171L8.27558 14.4117C8.48556 14.6217 8.82595 14.6217 9.03593 14.4118Z" fill="#458E22"/>
</svg>
