<svg width="20" height="20" viewBox="0 0 20 20" fill="none" xmlns="http://www.w3.org/2000/svg">
<path fill-rule="evenodd" clip-rule="evenodd" d="M17.3341 2.66502C15.6421 0.972152 12.8979 0.971985 11.2047 2.66514C10.9323 2.93759 10.4905 2.93759 10.2181 2.66514C9.94564 2.39268 9.94564 1.95095 10.2181 1.6785C12.4486 -0.55199 16.0597 -0.559577 18.2986 1.65635C18.3065 1.66354 18.3142 1.67092 18.3218 1.6785C20.5597 3.91638 20.5599 7.54408 18.3218 9.78125C18.3218 9.7813 18.3219 9.7812 18.3218 9.78125L9.78247 18.3215C7.55107 20.5519 3.94088 20.5596 1.70109 18.3438C1.69313 18.3366 1.68533 18.3291 1.67768 18.3215C-0.559163 16.0836 -0.559331 12.4559 1.6778 10.2188L6.30445 5.59307C6.30455 5.59298 6.30436 5.59317 6.30445 5.59307C7.55929 4.33735 9.59491 4.33716 10.8496 5.59307C12.1041 6.84783 12.1041 8.88281 10.8494 10.1375C10.8494 10.1375 10.8495 10.1375 10.8494 10.1375L6.22442 14.7635C5.95199 15.0359 5.51026 15.036 5.23778 14.7636C4.9653 14.4911 4.96525 14.0494 5.23768 13.7769L9.86271 9.15096C10.5726 8.4411 10.5726 7.28933 9.86275 6.57948C9.15296 5.86901 8.00136 5.86877 7.29156 6.57925L2.66444 11.2054C2.66442 11.2055 2.66446 11.2054 2.66444 11.2054C0.978905 12.891 0.972221 15.6208 2.6451 17.3155C2.65197 17.3218 2.65873 17.3283 2.66537 17.3349C4.35835 19.0279 7.10165 19.0281 8.79577 17.335C8.79582 17.3349 8.79572 17.335 8.79577 17.335L17.3351 8.79466C19.0215 7.10909 19.0283 4.37936 17.3546 2.6847C17.3477 2.67829 17.3408 2.67173 17.3341 2.66502Z" fill="#ACB4BE"/>
</svg>
