<svg width="14" height="16" viewBox="0 0 14 16" fill="none" xmlns="http://www.w3.org/2000/svg">
<path fill-rule="evenodd" clip-rule="evenodd" d="M10.3158 0.727273C10.3158 0.325611 9.99018 0 9.58852 0H1.47368C0.659474 0 0 0.650909 0 1.45455V10.8995C0 11.3065 0.329895 11.6364 0.736842 11.6364C1.14379 11.6364 1.47368 11.3065 1.47368 10.8995V2.45454C1.47368 1.90226 1.9214 1.45455 2.47368 1.45455H9.58852C9.99018 1.45455 10.3158 1.12893 10.3158 0.727273ZM12.5263 2.90906H4.42102C3.60681 2.90906 2.94733 3.56069 2.94733 4.3636V14.5454C2.94733 15.3483 3.60681 16 4.42102 16H12.5263C13.3398 16 14 15.3483 14 14.5454V4.3636C14 3.56069 13.3398 2.90906 12.5263 2.90906ZM4.42119 4.36359H12.5265V14.5454H4.42119V4.36359Z" fill="green"/>
</svg>
