<svg width="22" height="22" viewBox="0 0 22 22" fill="none" xmlns="http://www.w3.org/2000/svg">
<path fill-rule="evenodd" clip-rule="evenodd" d="M0 2.57447C0 1.15316 1.15316 0 2.57447 0H4.44681H17.5532H19.4255C20.8468 0 22 1.15316 22 2.57447V8.19149C22 10.5687 20.1343 12.5105 17.7873 12.6322C17.0529 14.5702 15.5116 16.1101 13.5745 16.8451V20.5957H14.7447C15.1325 20.5957 15.4468 20.9101 15.4468 21.2979C15.4468 21.6856 15.1325 22 14.7447 22H12.8723H9.12766H7.25532C6.86755 22 6.55319 21.6856 6.55319 21.2979C6.55319 20.9101 6.86755 20.5957 7.25532 20.5957H8.42553V16.8451C6.48839 16.1101 4.94706 14.5702 4.21269 12.6322C1.86573 12.5105 0 10.5687 0 8.19149V2.57447ZM9.82979 20.5957H12.1702V16.3418C12.1702 16.0311 12.3744 15.7574 12.6721 15.6688C15.0894 14.9497 16.8511 12.7129 16.8511 10.0638V1.40426H5.14894V10.0638C5.14894 12.7129 6.91055 14.9497 9.32786 15.6688C9.62563 15.7574 9.82979 16.0311 9.82979 16.3418V20.5957ZM3.82867 11.1712C3.77337 10.8102 3.74468 10.4404 3.74468 10.0638V1.40426H2.57447C1.92871 1.40426 1.40426 1.92871 1.40426 2.57447V8.19149C1.40426 9.65992 2.44478 10.8855 3.82867 11.1712ZM18.1713 11.1712C19.5552 10.8855 20.5957 9.65992 20.5957 8.19149V2.57447C20.5957 1.92871 20.0713 1.40426 19.4255 1.40426H18.2553V10.0638C18.2553 10.4404 18.2266 10.8102 18.1713 11.1712ZM11 3.74468C11.3878 3.74468 11.7021 4.05903 11.7021 4.44681V6.2891L13.4539 5.71991C13.8227 5.60009 14.2188 5.80191 14.3386 6.17071C14.4584 6.5395 14.2566 6.93561 13.8878 7.05544L12.1364 7.62451L13.2188 9.11457C13.4467 9.42831 13.3771 9.86739 13.0634 10.0953C12.7497 10.3232 12.3106 10.2536 12.0827 9.93988L11.0001 8.44954L9.91748 9.93988C9.68958 10.2536 9.25049 10.3232 8.93676 10.0953C8.62302 9.86739 8.55344 9.42831 8.78134 9.11457L9.86369 7.62458L8.11207 7.05544C7.74328 6.93561 7.54145 6.5395 7.66128 6.17071C7.78111 5.80191 8.17722 5.60009 8.54601 5.71991L10.2979 6.28913V4.44681C10.2979 4.05903 10.6122 3.74468 11 3.74468Z" fill="white"/>
</svg>
