<svg width="24" height="24" viewBox="0 0 24 24" fill="none" xmlns="http://www.w3.org/2000/svg">
<path d="M13.4688 18.25H14.4062C14.5306 18.25 14.6498 18.2006 14.7377 18.1127C14.8256 18.0248 14.875 17.9056 14.875 17.7812V9.34375C14.875 9.21943 14.8256 9.1002 14.7377 9.01229C14.6498 8.92439 14.5306 8.875 14.4062 8.875H13.4688C13.3444 8.875 13.2252 8.92439 13.1373 9.01229C13.0494 9.1002 13 9.21943 13 9.34375V17.7812C13 17.9056 13.0494 18.0248 13.1373 18.1127C13.2252 18.2006 13.3444 18.25 13.4688 18.25ZM19.875 5.125H16.6559L15.3277 2.91016C15.1611 2.63243 14.9253 2.40261 14.6434 2.24311C14.3615 2.0836 14.043 1.99985 13.7191 2H9.78086C9.45709 1.99998 9.13883 2.0838 8.85707 2.2433C8.57531 2.4028 8.33965 2.63254 8.17305 2.91016L6.84414 5.125H3.625C3.45924 5.125 3.30027 5.19085 3.18306 5.30806C3.06585 5.42527 3 5.58424 3 5.75V6.375C3 6.54076 3.06585 6.69973 3.18306 6.81694C3.30027 6.93415 3.45924 7 3.625 7H4.25V20.125C4.25 20.6223 4.44754 21.0992 4.79917 21.4508C5.15081 21.8025 5.62772 22 6.125 22H17.375C17.8723 22 18.3492 21.8025 18.7008 21.4508C19.0525 21.0992 19.25 20.6223 19.25 20.125V7H19.875C20.0408 7 20.1997 6.93415 20.3169 6.81694C20.4342 6.69973 20.5 6.54076 20.5 6.375V5.75C20.5 5.58424 20.4342 5.42527 20.3169 5.30806C20.1997 5.19085 20.0408 5.125 19.875 5.125ZM9.7125 3.98867C9.73339 3.9539 9.76294 3.92515 9.79827 3.90523C9.8336 3.8853 9.8735 3.87489 9.91406 3.875H13.5859C13.6264 3.87495 13.6662 3.8854 13.7015 3.90532C13.7368 3.92524 13.7663 3.95396 13.7871 3.98867L14.4691 5.125H9.03086L9.7125 3.98867ZM17.375 20.125H6.125V7H17.375V20.125ZM9.09375 18.25H10.0312C10.1556 18.25 10.2748 18.2006 10.3627 18.1127C10.4506 18.0248 10.5 17.9056 10.5 17.7812V9.34375C10.5 9.21943 10.4506 9.1002 10.3627 9.01229C10.2748 8.92439 10.1556 8.875 10.0312 8.875H9.09375C8.96943 8.875 8.8502 8.92439 8.76229 9.01229C8.67439 9.1002 8.625 9.21943 8.625 9.34375V17.7812C8.625 17.9056 8.67439 18.0248 8.76229 18.1127C8.8502 18.2006 8.96943 18.25 9.09375 18.25Z" fill="#FF3B30"/>
</svg>
