<svg width="16" height="16" viewBox="0 0 16 16" fill="none" xmlns="http://www.w3.org/2000/svg">
<path d="M8 15C4.13401 15 1 11.866 1 8C1 4.13401 4.13401 1 8 1C11.866 1 15 4.13401 15 8C15 10.1988 13.9868 12.1605 12.3999 13.4446C11.1976 14.4176 9.66748 15 8 15Z" stroke="#111621"/>
<path d="M8 0.5C3.85786 0.5 0.5 3.85786 0.5 8L5.5 10.0833V10.1667C5.5 11.2712 6.39543 12.1667 7.5 12.1667H8V15.5C9.78608 15.5 11.4263 14.8757 12.7144 13.8333C12.8193 11.5 11.0041 11.8889 10.0833 11.75V10C10.0833 8.89543 9.1879 8 8.08333 8H5.5V6.75C6.83333 6.75 7.16667 5.36111 7.16667 4.66667H8.08291C9.18748 4.66667 10.0833 3.77124 10.0833 2.66667V1.33333V0.793139C9.4219 0.602273 8.72289 0.5 8 0.5Z" fill="#111621"/>
</svg>
