<svg width="16" height="16" viewBox="0 0 16 16" fill="none" xmlns="http://www.w3.org/2000/svg">
<path d="M7.99967 5.40654C7.75433 5.41038 7.51081 5.44935 7.27653 5.52228C7.3849 5.71287 7.4426 5.92805 7.44412 6.14728C7.44412 6.31752 7.41059 6.48608 7.34544 6.64336C7.2803 6.80063 7.18481 6.94353 7.06444 7.06391C6.94407 7.18428 6.80117 7.27976 6.64389 7.34491C6.48662 7.41005 6.31805 7.44358 6.14782 7.44358C5.92859 7.44206 5.7134 7.38436 5.52282 7.27599C5.37245 7.79747 5.38998 8.35304 5.57291 8.86401C5.75584 9.37498 6.0949 9.81544 6.54207 10.123C6.98924 10.4306 7.52184 10.5896 8.06444 10.5777C8.60703 10.5657 9.13211 10.3833 9.5653 10.0564C9.99849 9.72944 10.3178 9.27447 10.4781 8.75594C10.6383 8.23741 10.6314 7.68161 10.4582 7.16726C10.285 6.6529 9.95436 6.20608 9.51312 5.89007C9.07188 5.57407 8.5424 5.40491 7.99967 5.40654ZM14.5858 7.66118C13.3305 5.21187 10.8453 3.55469 7.99967 3.55469C5.15407 3.55469 2.66818 5.21302 1.41355 7.66141C1.3606 7.76616 1.33301 7.88188 1.33301 7.99926C1.33301 8.11663 1.3606 8.23236 1.41355 8.3371C2.66888 10.7864 5.15407 12.4436 7.99967 12.4436C10.8453 12.4436 13.3312 10.7853 14.5858 8.33687C14.6388 8.23212 14.6663 8.1164 14.6663 7.99902C14.6663 7.88165 14.6388 7.76592 14.5858 7.66118ZM7.99967 11.3325C5.71611 11.3325 3.62258 10.0593 2.49203 7.99914C3.62258 5.93895 5.71587 4.6658 7.99967 4.6658C10.2835 4.6658 12.3768 5.93895 13.5073 7.99914C12.377 10.0593 10.2835 11.3325 7.99967 11.3325Z" fill="#808191"/>
</svg>
