<svg width="20" height="20" viewBox="0 0 20 20" fill="none" xmlns="http://www.w3.org/2000/svg">
<path fill-rule="evenodd" clip-rule="evenodd" d="M1.39535 4.4186C1.39535 2.74904 2.74904 1.39535 4.4186 1.39535H15.5814C17.251 1.39535 18.6047 2.74904 18.6047 4.4186V15.5814C18.6047 17.251 17.251 18.6047 15.5814 18.6047H4.4186C2.74904 18.6047 1.39535 17.251 1.39535 15.5814V4.4186ZM4.4186 0C1.97841 0 0 1.97841 0 4.4186V15.5814C0 18.0216 1.97841 20 4.4186 20H15.5814C18.0216 20 20 18.0216 20 15.5814V4.4186C20 1.97841 18.0216 0 15.5814 0H4.4186ZM4.4186 9.30233C4.03329 9.30233 3.72093 9.61469 3.72093 10C3.72093 10.3853 4.03329 10.6977 4.4186 10.6977H15.5814C15.9667 10.6977 16.2791 10.3853 16.2791 10C16.2791 9.61469 15.9667 9.30233 15.5814 9.30233H4.4186ZM3.72093 5.34884C3.72093 4.96352 4.03329 4.65116 4.4186 4.65116H9.06977C9.45508 4.65116 9.76744 4.96352 9.76744 5.34884C9.76744 5.73415 9.45508 6.04651 9.06977 6.04651H4.4186C4.03329 6.04651 3.72093 5.73415 3.72093 5.34884ZM4.4186 13.9535C4.03329 13.9535 3.72093 14.2658 3.72093 14.6512C3.72093 15.0365 4.03329 15.3488 4.4186 15.3488H12.7907C13.176 15.3488 13.4884 15.0365 13.4884 14.6512C13.4884 14.2658 13.176 13.9535 12.7907 13.9535H4.4186Z" fill="white"/>
</svg>
