<svg width="16" height="16" viewBox="0 0 16 16" fill="none" xmlns="http://www.w3.org/2000/svg">
<path fill-rule="evenodd" clip-rule="evenodd" d="M13.8682 2.1318C14.0439 2.30754 14.0439 2.59246 13.8682 2.7682L2.7682 13.8682C2.59246 14.0439 2.30754 14.0439 2.1318 13.8682C1.95607 13.6925 1.95607 13.4075 2.1318 13.2318L13.2318 2.1318C13.4075 1.95607 13.6925 1.95607 13.8682 2.1318ZM4.85002 2.9C3.93874 2.9 3.20002 3.63873 3.20002 4.55C3.20002 5.46127 3.93874 6.2 4.85002 6.2C5.76129 6.2 6.50002 5.46127 6.50002 4.55C6.50002 3.63873 5.76129 2.9 4.85002 2.9ZM2.30002 4.55C2.30002 3.14167 3.44169 2 4.85002 2C6.25834 2 7.40002 3.14167 7.40002 4.55C7.40002 5.95833 6.25834 7.1 4.85002 7.1C3.44169 7.1 2.30002 5.95833 2.30002 4.55ZM9.79997 11.15C9.79997 10.2387 10.5387 9.49999 11.45 9.49999C12.3612 9.49999 13.1 10.2387 13.1 11.15C13.1 12.0613 12.3612 12.8 11.45 12.8C10.5387 12.8 9.79997 12.0613 9.79997 11.15ZM11.45 8.59999C10.0416 8.59999 8.89997 9.74166 8.89997 11.15C8.89997 12.5583 10.0416 13.7 11.45 13.7C12.8583 13.7 14 12.5583 14 11.15C14 9.74166 12.8583 8.59999 11.45 8.59999Z" fill="#808191"/>
</svg>
