<svg width="20" height="20" viewBox="0 0 20 20" fill="none" xmlns="http://www.w3.org/2000/svg">
<path fill-rule="evenodd" clip-rule="evenodd" d="M2.55814 1.39535C1.91648 1.39535 1.39535 1.91648 1.39535 2.55814V17.4419C1.39535 18.0835 1.91648 18.6047 2.55814 18.6047H17.4419C18.0835 18.6047 18.6047 18.0835 18.6047 17.4419V2.55814C18.6047 1.91648 18.0835 1.39535 17.4419 1.39535H2.55814ZM0 2.55814C0 1.14585 1.14585 0 2.55814 0H17.4419C18.8542 0 20 1.14585 20 2.55814V17.4419C20 18.8542 18.8542 20 17.4419 20H2.55814C1.14585 20 0 18.8542 0 17.4419V2.55814ZM7.36712 3.86458C7.8254 3.65424 8.4135 3.65686 8.90341 3.99282L8.90412 3.9933L13.2322 6.96924L13.2329 6.96968C14.0703 7.54354 14.0703 8.73615 13.2329 9.30999L13.2322 9.31041L8.90409 12.2854L8.90404 12.2855C8.41424 12.6222 7.82584 12.6254 7.36712 12.4148C6.90679 12.2036 6.51163 11.7405 6.51163 11.1142V5.16448C6.51163 4.53816 6.90731 4.07562 7.36712 3.86458ZM4.4186 14.8837C4.03329 14.8837 3.72093 15.1961 3.72093 15.5814C3.72093 15.9667 4.03329 16.2791 4.4186 16.2791H8.13953C8.52485 16.2791 8.83721 15.9667 8.83721 15.5814C8.83721 15.1961 8.52485 14.8837 8.13953 14.8837H4.4186ZM13.0233 15.5814C13.0233 15.1961 13.3356 14.8837 13.7209 14.8837H15.5814C15.9667 14.8837 16.2791 15.1961 16.2791 15.5814C16.2791 15.9667 15.9667 16.2791 15.5814 16.2791H13.7209C13.3356 16.2791 13.0233 15.9667 13.0233 15.5814ZM11.6279 15.5723C11.6279 15.1869 11.3155 14.8746 10.9302 14.8746C10.5449 14.8746 10.2326 15.1869 10.2326 15.5723V15.5816C10.2326 15.9669 10.5449 16.2792 10.9302 16.2792C11.3155 16.2792 11.6279 15.9669 11.6279 15.5816V15.5723Z" fill="white"/>
</svg>
