<svg width="24" height="24" viewBox="0 0 24 24" fill="none" xmlns="http://www.w3.org/2000/svg">
<path fill-rule="evenodd" clip-rule="evenodd" d="M4.92383 11.9595C4.92383 8.66815 7.59198 6 10.8833 6C14.1747 6 16.8428 8.66815 16.8428 11.9595C16.8428 15.2508 14.1747 17.919 10.8833 17.919C7.59198 17.919 4.92383 15.2508 4.92383 11.9595ZM10.8833 4C6.48741 4 2.92383 7.56359 2.92383 11.9595C2.92383 16.3554 6.48741 19.919 10.8833 19.919C13.0813 19.919 15.0711 19.0281 16.5115 17.5877L19.9238 21L21.338 19.5858L17.7461 15.9938C18.443 14.8108 18.8428 13.4319 18.8428 11.9595C18.8428 7.56359 15.2792 4 10.8833 4Z" fill="#111621"/>
</svg>
