<svg width="40" height="40" viewBox="0 0 40 40" fill="none" xmlns="http://www.w3.org/2000/svg">
<path fill-rule="evenodd" clip-rule="evenodd" d="M34.6774 12.7061L33.64 10.906C32.7624 9.38275 30.8174 8.85728 29.2922 9.73128V9.73128C28.5661 10.159 27.6997 10.2803 26.8841 10.0686C26.0685 9.85678 25.3706 9.32928 24.9443 8.60237C24.6701 8.14033 24.5228 7.61407 24.5172 7.07681V7.07681C24.5419 6.21545 24.2169 5.38075 23.6163 4.76286C23.0157 4.14498 22.1905 3.79652 21.3288 3.79688H19.2388C18.3945 3.79687 17.5851 4.13327 16.9896 4.73166C16.3941 5.33004 16.0616 6.14107 16.0656 6.98528V6.98528C16.0406 8.72829 14.6204 10.1281 12.8772 10.1279C12.3399 10.1223 11.8137 9.97499 11.3517 9.70076V9.70076C9.82636 8.82677 7.88145 9.35224 7.00382 10.8754L5.89017 12.7061C5.01361 14.2274 5.53193 16.1711 7.04959 17.0539V17.0539C8.0361 17.6235 8.64381 18.6761 8.64381 19.8152C8.64381 20.9543 8.0361 22.0069 7.04959 22.5764V22.5764C5.53385 23.4533 5.01497 25.3923 5.89017 26.909V26.909L6.9428 28.7244C7.354 29.4664 8.04393 30.0139 8.85991 30.2458C9.6759 30.4777 10.5507 30.3749 11.2906 29.9601V29.9601C12.0181 29.5356 12.8849 29.4194 13.6985 29.6371C14.5121 29.8548 15.205 30.3885 15.6232 31.1195C15.8974 31.5816 16.0448 32.1078 16.0504 32.6451V32.6451C16.0504 34.406 17.4779 35.8335 19.2388 35.8335H21.3288C23.0837 35.8335 24.5088 34.4153 24.5172 32.6603V32.6603C24.5131 31.8135 24.8477 31.0001 25.4465 30.4013C26.0454 29.8025 26.8587 29.4678 27.7056 29.4719C28.2415 29.4863 28.7656 29.633 29.2311 29.8991V29.8991C30.7524 30.7756 32.6961 30.2573 33.579 28.7397V28.7397L34.6774 26.909C35.1025 26.1792 35.2192 25.3101 35.0016 24.494C34.784 23.678 34.25 22.9823 33.5179 22.5612V22.5612C32.7859 22.14 32.2519 21.4444 32.0343 20.6283C31.8167 19.8123 31.9334 18.9431 32.3585 18.2134C32.635 17.7306 33.0352 17.3304 33.5179 17.0539V17.0539C35.0265 16.1716 35.5436 14.2392 34.6774 12.7214V12.7214V12.7061Z" stroke="#808191" stroke-width="2" stroke-linecap="round" stroke-linejoin="round"/>
<circle cx="20.2915" cy="19.8155" r="4.39359" stroke="#808191" stroke-width="2" stroke-linecap="round" stroke-linejoin="round"/>
</svg>
