<svg width="24" height="24" viewBox="0 0 24 24" fill="none" xmlns="http://www.w3.org/2000/svg">
<path fill-rule="evenodd" clip-rule="evenodd" d="M11.3668 1C10.4132 1 9.60136 1.68999 9.44497 2.62977L9.15131 4.39631C8.41548 4.69064 7.73336 5.08842 7.12157 5.5719L5.44545 4.94278C4.55394 4.60901 3.55014 4.96893 3.07433 5.79463L2.2608 7.20638C1.78596 8.0304 1.97384 9.08016 2.70911 9.68654L4.08616 10.8213C4.03002 11.2062 4.00098 11.5995 4.00098 12C4.00098 12.3999 4.03002 12.7935 4.08617 13.1787L2.70889 14.3136C1.97362 14.92 1.78597 15.9696 2.2608 16.7936L3.07433 18.2054C3.55014 19.0311 4.55449 19.3908 5.44601 19.057L7.12157 18.4281C7.73336 18.9116 8.41548 19.3094 9.15131 19.6037L9.44497 21.3702C9.60136 22.31 10.4132 23 11.3668 23H12.9938C13.948 23 14.7601 22.3102 14.9166 21.3701L15.2103 19.6034C15.9458 19.3087 16.6275 18.9114 17.2397 18.428L18.9161 19.0572C19.8082 19.3912 20.8107 19.0297 21.2872 18.2054L22.1007 16.7936C22.5756 15.9695 22.3879 14.9196 21.6512 14.3132L20.275 13.1786C20.3309 12.7941 20.3606 12.4005 20.3606 12C20.3606 11.5988 20.3309 11.2056 20.275 10.8214L21.6512 9.6868C22.3879 9.08045 22.5756 8.03052 22.1007 7.20637L21.2867 5.79382C20.8103 4.9695 19.8076 4.609 18.9155 4.94299L17.2398 5.57197C16.6278 5.08861 15.9461 4.69075 15.2102 4.39633L14.9166 2.62977C14.7601 1.68967 13.948 1 12.9938 1H11.3668ZM10.4698 5.02833L10.8302 2.86028C10.8742 2.5962 11.1015 2.40426 11.3668 2.40426H12.9938C13.2604 2.40426 13.4874 2.59652 13.5314 2.86028L13.8918 5.02833C13.9342 5.28343 14.1134 5.49457 14.3582 5.57788C15.2069 5.86673 15.9789 6.31938 16.6416 6.90058C16.8362 7.07124 17.109 7.12099 17.3513 7.03003L19.4084 6.2579C19.6564 6.16507 19.9369 6.2653 20.071 6.49656L20.884 7.9075C21.0176 8.13934 20.9634 8.43414 20.7583 8.60294L19.0676 9.9969C18.8683 10.1612 18.7753 10.4217 18.8255 10.675C18.9106 11.1046 18.9563 11.5466 18.9563 12C18.9563 12.4525 18.9106 12.8955 18.8255 13.325C18.7753 13.5783 18.8683 13.8388 19.0676 14.0031L20.7588 15.3974C20.9639 15.5662 21.0176 15.8607 20.884 16.0925L20.0705 17.5042C19.9364 17.7353 19.6563 17.8349 19.4084 17.7421L17.3513 16.97C17.109 16.879 16.8362 16.9288 16.6416 17.0994C15.9792 17.6803 15.2072 18.1323 14.3576 18.4223C14.1131 18.5058 13.9341 18.7168 13.8918 18.9717L13.5313 21.1398C13.4874 21.4036 13.2604 21.5957 12.9938 21.5957H11.3668C11.1015 21.5957 10.8742 21.4038 10.8302 21.1397L10.4698 18.9717C10.4274 18.7166 10.2482 18.5054 10.0034 18.4221C9.15434 18.1332 8.38168 17.6805 7.72024 17.0997C7.52562 16.9288 7.25273 16.879 7.01025 16.97L4.95305 17.7421C4.70433 17.8352 4.42372 17.7345 4.29103 17.5042L3.4775 16.0925C3.34382 15.8605 3.3977 15.5658 3.60234 15.397L5.29378 14.0032C5.49354 13.8386 5.58653 13.5775 5.53577 13.3237C5.45022 12.8959 5.40523 12.4533 5.40523 12C5.40523 11.5458 5.45021 11.1041 5.53577 10.6763C5.58653 10.4225 5.49354 10.1614 5.29378 9.99677L3.60212 8.60282C3.39766 8.43402 3.34388 8.13939 3.4775 7.90749L4.29103 6.49575C4.42368 6.26556 4.70444 6.16498 4.9531 6.2579L7.01025 7.03003C7.25273 7.12104 7.52562 7.07117 7.72024 6.90029C8.38168 6.31951 9.15434 5.86682 10.0034 5.57788C10.2482 5.49457 10.4274 5.28343 10.4698 5.02833ZM10.0738 12C10.0738 10.8367 11.0175 9.89362 12.1802 9.89362C13.3436 9.89362 14.2865 10.8365 14.2865 12C14.2865 13.1635 13.3436 14.1064 12.1802 14.1064C11.0175 14.1064 10.0738 13.1633 10.0738 12ZM12.1802 8.48936C10.2422 8.48936 8.66953 10.0608 8.66953 12C8.66953 13.9392 10.2422 15.5106 12.1802 15.5106C14.1192 15.5106 15.6908 13.939 15.6908 12C15.6908 10.061 14.1192 8.48936 12.1802 8.48936Z" fill="#808191"/>
</svg>
