<svg width="23" height="22" viewBox="0 0 23 22" fill="none" xmlns="http://www.w3.org/2000/svg">
<path d="M21.317 7.53383L15.3253 6.66031L12.6473 1.23051C12.1675 0.262659 10.7773 0.250356 10.2933 1.23051L7.61535 6.66031L1.62371 7.53383C0.549232 7.68967 0.118621 9.01431 0.897822 9.77301L5.23264 13.9971L4.20737 19.9641C4.02283 21.0427 5.15882 21.8506 6.11026 21.3462L11.4703 18.5288L16.8304 21.3462C17.7819 21.8465 18.9179 21.0427 18.7333 19.9641L17.708 13.9971L22.0429 9.77301C22.8221 9.01431 22.3915 7.68967 21.317 7.53383ZM15.596 13.3081L16.568 18.984L11.4703 16.306L6.37273 18.984L7.34468 13.3081L3.21902 9.28908L8.91949 8.46067L11.4703 3.29334L14.0212 8.46067L19.7217 9.28908L15.596 13.3081Z" fill="#ACB4BE"/>
</svg>
