<svg width="16" height="16" viewBox="0 0 16 16" fill="none" xmlns="http://www.w3.org/2000/svg">
<path d="M7.99902 5.89961V4.84961" stroke="#808191" stroke-linecap="round" stroke-linejoin="round"/>
<path d="M7.99902 11.1496V10.0996" stroke="#808191" stroke-linecap="round" stroke-linejoin="round"/>
<path d="M9.05059 5.90039H7.65059C7.07099 5.90039 6.60059 6.37009 6.60059 6.95039C6.60059 7.53069 7.07099 8.00039 7.65059 8.00039H8.35059C8.93019 8.00039 9.40059 8.47009 9.40059 9.05039C9.40059 9.63069 8.93019 10.1004 8.35059 10.1004H6.60059" stroke="#808191" stroke-linecap="round" stroke-linejoin="round"/>
<path fill-rule="evenodd" clip-rule="evenodd" d="M15 8C15 11.8661 11.8654 15 8 15C4.1346 15 1 11.8661 1 8C1 4.1339 4.1346 1 8 1C11.8654 1 15 4.1339 15 8Z" stroke="#808191" stroke-linecap="round" stroke-linejoin="round"/>
</svg>
