<svg width="16" height="16" viewBox="0 0 16 16" fill="none" xmlns="http://www.w3.org/2000/svg">
<path fill-rule="evenodd" clip-rule="evenodd" d="M2.89329 2.85106C2.50192 2.85106 2.18407 3.16892 2.18407 3.56028C2.18407 3.95165 2.50192 4.2695 2.89329 4.2695L13.1061 4.2695C13.9675 4.2695 14.6663 4.96839 14.6663 5.82979L14.6663 12.6383C14.6663 13.4997 13.9675 14.1986 13.1061 14.1986L4.02804 14.1986C2.5397 14.1986 1.33301 12.9919 1.33301 11.5035L1.33301 3.56028C1.33301 2.69889 2.03189 2 2.89329 2L13.1061 2C13.3411 2 13.5316 2.19052 13.5316 2.42553C13.5316 2.66055 13.3411 2.85106 13.1061 2.85106L2.89329 2.85106ZM2.18407 4.9503L2.18407 11.5035C2.18407 12.5219 3.00972 13.3475 4.02804 13.3475L13.1061 13.3475C13.4974 13.3475 13.8153 13.0297 13.8153 12.6383L13.8153 5.82979C13.8153 5.43842 13.4974 5.12057 13.1061 5.12057L2.89329 5.12057C2.63795 5.12057 2.39688 5.05916 2.18407 4.9503Z" fill="#808191"/>
</svg>
