<svg width="12" height="12" viewBox="0 0 12 12" fill="none" xmlns="http://www.w3.org/2000/svg">
<path fill-rule="evenodd" clip-rule="evenodd" d="M5.99976 0C9.31359 0 12 2.6863 12 6C12 9.31322 9.31359 12 5.99976 12C2.68592 12 0 9.31322 0 6C0 2.6863 2.68592 0 5.99976 0ZM5.99976 1C3.23831 1 1 3.23847 1 6C1 8.76122 3.2385 11 5.99976 11C8.76114 11 11 8.7611 11 6C11 3.23859 8.76132 1 5.99976 1ZM6.24959 1.98182C5.97728 1.98182 5.75372 2.19748 5.75372 2.46694V5.7752H3.5686C3.29619 5.7752 3.07273 5.99055 3.07273 6.26033C3.07273 6.53011 3.29619 6.74545 3.5686 6.74545H6.74545V2.46694C6.74545 2.19748 6.52189 1.98182 6.24959 1.98182Z" fill="#458E22"/>
</svg>
