<svg width="16" height="16" viewBox="0 0 16 16" fill="none" xmlns="http://www.w3.org/2000/svg">
<path fill-rule="evenodd" clip-rule="evenodd" d="M7.9997 0.5C12.142 0.5 15.5 3.85787 15.5 8C15.5 12.1415 12.142 15.5 7.9997 15.5C3.8574 15.5 0.5 12.1415 0.5 8C0.5 3.85787 3.8574 0.5 7.9997 0.5ZM7.9997 1.75C4.54789 1.75 1.75 4.54809 1.75 8C1.75 11.4515 4.54812 14.25 7.9997 14.25C11.4514 14.25 14.25 11.4514 14.25 8C14.25 4.54824 11.4516 1.75 7.9997 1.75ZM8.31199 2.97727C7.97161 2.97727 7.69215 3.24684 7.69215 3.58368V7.719H4.96075C4.62024 7.719 4.34092 7.98819 4.34092 8.32541C4.34092 8.66263 4.62024 8.93182 4.96075 8.93182H8.93183V3.58368C8.93183 3.24684 8.65237 2.97727 8.31199 2.97727Z" fill="#5559F4"/>
</svg>
