<svg width="34" height="34" viewBox="0 0 34 34" fill="none" xmlns="http://www.w3.org/2000/svg">
<rect width="34" height="34" rx="8" fill="#5559F4"/>
<g clip-path="url(#clip0)">
<path d="M25.0996 16.9994V16.6641C25.2094 16.6887 25.2644 16.749 25.2644 16.8448C25.2644 16.8913 25.2487 16.9283 25.2172 16.9559C25.1859 16.9849 25.1466 16.9994 25.0996 16.9994Z" fill="white"/>
<path d="M25.0996 20.1582V20.4935C25.1466 20.4935 25.1859 20.479 25.2172 20.45C25.2487 20.4224 25.2644 20.3854 25.2644 20.3389C25.2644 20.243 25.2094 20.1828 25.0996 20.1582Z" fill="white"/>
<path fill-rule="evenodd" clip-rule="evenodd" d="M20.2381 27.5236C25.9608 27.5236 30.6 22.8845 30.6 17.1617C30.6 11.439 25.9608 6.7998 20.2381 6.7998C14.9756 6.7998 10.6294 10.7228 9.96436 15.8038C10.5253 15.2083 11.2403 14.9105 12.1093 14.9105C12.9189 14.9105 13.5002 15.0858 13.8534 15.4364H13.8792C13.8706 15.3509 13.8663 15.2525 13.8663 15.1414V12.4989H16.1013V21.8246H14.0084V21.2345L14.0213 20.8625H13.9955C13.5735 21.5039 12.9318 21.8246 12.0705 21.8246C11.6285 21.8246 11.2287 21.7491 10.8711 21.5979C12.5332 25.1011 16.1027 27.5236 20.2381 27.5236ZM18.9928 15.0644H16.7578V19.3488C16.7578 20.2211 16.9688 20.8539 17.3909 21.2473C17.8214 21.6321 18.3986 21.8246 19.122 21.8246C19.5699 21.8246 19.9833 21.722 20.3623 21.5167C20.7413 21.3115 21.0212 21.0336 21.202 20.6829H21.2279L21.202 21.0934V21.8246H23.3467V15.0644H21.1116V17.9891C21.1116 18.5108 20.991 18.9469 20.7498 19.2975C20.5087 19.6396 20.1598 19.8106 19.7034 19.8106C19.2297 19.8106 18.9928 19.5199 18.9928 18.9383V15.0644ZM25.3648 15.257C25.2521 15.1452 25.1174 15.0893 24.9604 15.0893C24.8007 15.0893 24.6646 15.1452 24.5519 15.257C24.4392 15.3703 24.3828 15.5227 24.3828 15.7143C24.3828 15.8072 24.3993 15.8965 24.4321 15.9822C24.4648 16.0693 24.509 16.1404 24.5647 16.1956L24.8235 16.0584C24.7351 15.9539 24.6908 15.8515 24.6908 15.7513C24.6908 15.6628 24.718 15.5938 24.7722 15.5445C24.8278 15.4951 24.892 15.4704 24.9647 15.4704C25.036 15.4704 25.0974 15.4937 25.1487 15.5401C25.2014 15.588 25.2279 15.6541 25.2279 15.7383C25.2279 15.8384 25.1922 15.9263 25.1209 16.0018L25.369 16.1607C25.4247 16.1085 25.466 16.0417 25.4931 15.9604C25.5216 15.8806 25.5359 15.7985 25.5359 15.7143C25.5359 15.5227 25.4789 15.3703 25.3648 15.257ZM25.3712 16.4286C25.2628 16.3226 25.1259 16.2696 24.9604 16.2696C24.8035 16.2696 24.6681 16.3248 24.5539 16.4351C24.4398 16.5454 24.3828 16.6957 24.3828 16.8859C24.3828 16.973 24.3971 17.0594 24.4256 17.145C24.4542 17.2321 24.4933 17.3055 24.5433 17.365L24.8021 17.2256C24.728 17.1124 24.6908 17.0093 24.6908 16.9164C24.6908 16.8525 24.7073 16.7959 24.7401 16.7465C24.7744 16.6986 24.8235 16.6681 24.8877 16.6551V17.3628C24.939 17.3686 24.9776 17.3715 25.0033 17.3715C25.1601 17.3715 25.2877 17.3251 25.3861 17.2321C25.486 17.1407 25.5359 17.0144 25.5359 16.8532C25.5359 16.6761 25.4809 16.5346 25.3712 16.4286ZM24.4085 17.5683H25.5102V17.9298H25.414L25.3455 17.9255V17.9298C25.4724 18.0068 25.5359 18.1258 25.5359 18.287C25.5359 18.5555 25.3983 18.6898 25.1231 18.6898H24.4085V18.3131H25.0546C25.1516 18.3131 25.2 18.2717 25.2 18.189C25.2 18.1091 25.1723 18.0481 25.1166 18.0061C25.061 17.9654 24.9911 17.9451 24.907 17.9451H24.4085V17.5683ZM25.2022 18.9968H24.8149C24.7565 18.9968 24.7037 19.0055 24.6567 19.023C24.6096 19.0404 24.571 19.0643 24.5411 19.0948C24.5126 19.1253 24.4884 19.1573 24.4685 19.1906C24.4485 19.2255 24.4335 19.264 24.4235 19.3061C24.4135 19.3496 24.4071 19.3874 24.4042 19.4193C24.3999 19.4527 24.3979 19.4868 24.3979 19.5216C24.3979 19.5333 24.3999 19.5674 24.4042 19.624H24.7252C24.7237 19.608 24.723 19.5913 24.723 19.5739C24.723 19.4403 24.77 19.3736 24.8642 19.3736H25.2022V19.6088H25.491V19.3736H25.8076V19.0077H25.491V18.8531H25.2022V18.9968ZM24.9604 19.7637C25.1259 19.7637 25.2628 19.8167 25.3712 19.9226C25.4809 20.0286 25.5359 20.1702 25.5359 20.3472C25.5359 20.5085 25.486 20.6348 25.3861 20.7262C25.2877 20.8191 25.1601 20.8656 25.0033 20.8656C24.9776 20.8656 24.939 20.8626 24.8877 20.8569V20.149C24.8235 20.1621 24.7744 20.1927 24.7401 20.2406C24.7073 20.29 24.6908 20.3466 24.6908 20.4104C24.6908 20.5033 24.728 20.6064 24.8021 20.7196L24.5433 20.859C24.4933 20.7995 24.4542 20.7262 24.4256 20.639C24.3971 20.5534 24.3828 20.467 24.3828 20.38C24.3828 20.1897 24.4398 20.0395 24.5539 19.9291C24.6681 19.8189 24.8035 19.7637 24.9604 19.7637ZM25.5102 21.0623H24.4085V21.4391H24.8363C24.9404 21.4391 25.0218 21.4653 25.0802 21.5175C25.1387 21.5698 25.168 21.6467 25.168 21.7484C25.168 21.7861 25.1658 21.8115 25.1615 21.8246H25.5252C25.5281 21.8071 25.5295 21.7926 25.5295 21.781C25.5295 21.6997 25.5031 21.6256 25.4504 21.5589C25.3975 21.4935 25.3326 21.4486 25.2557 21.4238V21.4195L25.3241 21.4238H25.5102V21.0623Z" fill="white"/>
<path d="M11.696 17.2065C11.4462 17.4887 11.3213 17.8736 11.3213 18.361C11.3213 18.8485 11.4419 19.2418 11.683 19.5412C11.9242 19.8404 12.2386 19.9902 12.6261 19.9902C12.9965 19.9902 13.3066 19.8533 13.5563 19.5796C13.8061 19.306 13.931 18.8998 13.931 18.361C13.931 17.9334 13.8147 17.5657 13.5822 17.2578C13.3582 16.9414 13.0396 16.7832 12.6261 16.7832C12.2558 16.7832 11.9457 16.9243 11.696 17.2065Z" fill="white"/>
<path fill-rule="evenodd" clip-rule="evenodd" d="M4.34301 15.9477C3.71427 16.5976 3.3999 17.4186 3.3999 18.4106C3.3999 19.3513 3.72719 20.1637 4.38177 20.8479C5.03635 21.532 5.92778 21.8741 7.05607 21.8741C7.57285 21.8741 8.08531 21.7886 8.59347 21.6175C9.11024 21.4465 9.5452 21.2113 9.89832 20.912L9.07149 19.3598C8.39968 19.8045 7.78817 20.0269 7.23694 20.0269C6.85798 20.0269 6.52207 19.9285 6.22923 19.7319C5.94501 19.5266 5.76414 19.2316 5.68662 18.8468H9.88541C9.91986 18.5389 9.93709 18.308 9.93709 18.154C9.93709 17.2134 9.66147 16.448 9.11024 15.8579C8.56763 15.2593 7.81831 14.96 6.86228 14.96C5.81151 14.96 4.97175 15.2892 4.34301 15.9477ZM7.72788 17.5768H5.7383C5.88473 16.9183 6.24216 16.5891 6.8106 16.5891C7.08621 16.5891 7.30585 16.6831 7.46949 16.8713C7.64176 17.0594 7.72788 17.2946 7.72788 17.5768Z" fill="white"/>
</g>
<defs>
<clipPath id="clip0">
<rect width="27.2" height="20.7238" fill="white" transform="translate(3.3999 6.7998)"/>
</clipPath>
</defs>
</svg>
