<svg width="15" height="20" viewBox="0 0 15 20" fill="none" xmlns="http://www.w3.org/2000/svg">
<path d="M14.4464 3.82738L11.1697 0.550674C10.8182 0.19918 10.3417 0 9.84573 0H1.87463C0.83968 0.00390549 0 0.843585 0 1.87854V18.1254C0 19.1603 0.83968 20 1.87463 20H13.1224C14.1574 20 14.9971 19.1603 14.9971 18.1254V5.15524C14.9971 4.65925 14.7979 4.17887 14.4464 3.82738ZM12.9701 5.00293H9.99805V2.03085L12.9701 5.00293ZM1.87463 18.1254V1.87854H8.12341V5.94025C8.12341 6.45968 8.5413 6.87756 9.06073 6.87756H13.1224V18.1254H1.87463ZM11.6462 12.5132C11.1697 12.0445 9.81058 12.1734 9.13103 12.2593C8.45929 11.8492 8.01015 11.283 7.69381 10.4511C7.84612 9.8223 8.08826 8.86546 7.90471 8.26401C7.74068 7.24077 6.42843 7.34232 6.24097 8.03359C6.06913 8.66237 6.22535 9.5372 6.51435 10.6542C6.1238 11.5876 5.54189 12.8412 5.13181 13.5599C4.35071 13.9621 3.29623 14.5831 3.14001 15.3642C3.01113 15.9813 4.15544 17.52 6.11209 14.1457C6.98692 13.8567 7.93986 13.5013 8.78344 13.3607C9.52158 13.759 10.3847 14.0246 10.9627 14.0246C11.9586 14.0246 12.0562 12.9233 11.6462 12.5132ZM3.90939 15.5517C4.10857 15.0166 4.86624 14.3995 5.09666 14.1847C4.35462 15.3681 3.90939 15.579 3.90939 15.5517ZM7.09627 8.10779C7.38528 8.10779 7.35794 9.36145 7.16657 9.70123C6.99473 9.15837 6.99863 8.10779 7.09627 8.10779ZM6.14333 13.4427C6.52216 12.7827 6.84632 11.9977 7.10799 11.3064C7.43214 11.8961 7.84612 12.3687 8.28354 12.6928C7.4712 12.8608 6.7643 13.2045 6.14333 13.4427ZM11.283 13.2474C11.283 13.2474 11.0877 13.4817 9.82621 12.9428C11.197 12.8412 11.4236 13.1537 11.283 13.2474Z" fill="#DD0000"/>
</svg>
